<svg xmlns="http://www.w3.org/2000/svg" width="1200" height="650" viewBox="0 0 1200 650">
<rect width="1200" height="650" fill="white"/>
<text x="600" y="45" text-anchor="middle" font-family="Arial" font-size="30" font-weight="bold">Smart Battery BMS — System Architecture</text>
<g font-family="Arial" font-size="18" text-anchor="middle">
<rect x="60" y="130" width="190" height="100" rx="14" fill="#f5f5f5" stroke="#222" stroke-width="2"/><text x="155" y="170">18650 Battery</text><text x="155" y="198">/ Battery Model</text>
<rect x="320" y="90" width="220" height="100" rx="14" fill="#f5f5f5" stroke="#222" stroke-width="2"/><text x="430" y="130">INA219</text><text x="430" y="158">Voltage / Current / Power</text>
<rect x="320" y="220" width="220" height="100" rx="14" fill="#f5f5f5" stroke="#222" stroke-width="2"/><text x="430" y="260">DS18B20</text><text x="430" y="288">Temperature</text>
<rect x="620" y="145" width="230" height="160" rx="14" fill="#eaf2ff" stroke="#225" stroke-width="2"/><text x="735" y="185" font-weight="bold">ESP32 BMS Engine</text><text x="735" y="220">SoC • SoH</text><text x="735" y="248">Cycle Count • Capacity</text><text x="735" y="276">RUL • Safety Status</text>
<rect x="930" y="90" width="200" height="100" rx="14" fill="#f5f5f5" stroke="#222" stroke-width="2"/><text x="1030" y="130">Serial CSV</text><text x="1030" y="158">Telemetry Stream</text>
<rect x="930" y="220" width="200" height="100" rx="14" fill="#eef8ee" stroke="#242" stroke-width="2"/><text x="1030" y="260">Python Analytics</text><text x="1030" y="288">Logging + RUL</text>
<rect x="500" y="420" width="230" height="100" rx="14" fill="#fff7e6" stroke="#663" stroke-width="2"/><text x="615" y="460">Safety Monitor</text><text x="615" y="488">UV / OV / OC / OT</text>
<rect x="820" y="420" width="230" height="100" rx="14" fill="#f5f5f5" stroke="#222" stroke-width="2"/><text x="935" y="460">Dataset / Reports</text><text x="935" y="488">CSV • Plots • Metrics</text>
</g>
<g stroke="#222" stroke-width="3" fill="none" marker-end="url(#a)">
<path d="M250 180 L320 140"/><path d="M250 180 L320 270"/><path d="M540 140 L620 200"/><path d="M540 270 L620 250"/><path d="M850 200 L930 140"/><path d="M1030 190 L1030 220"/><path d="M735 305 L615 420"/><path d="M850 300 L935 420"/>
</g><defs><marker id="a" markerWidth="10" markerHeight="10" refX="8" refY="3" orient="auto"><path d="M0,0 L0,6 L9,3 z" fill="#222"/></marker></defs>
<text x="600" y="590" text-anchor="middle" font-family="Arial" font-size="17">Educational simulation architecture — not a production battery protection system</text>
</svg>
